<?xml version="1.0" encoding="UTF-8"?>
<svg width="59px" height="59px" viewBox="0 0 59 59" version="1.1" xmlns="http://www.w3.org/2000/svg" xmlns:xlink="http://www.w3.org/1999/xlink">
    <!-- Generator: Sketch 46.2 (44496) - http://www.bohemiancoding.com/sketch -->
    <title>loading</title>
    <desc>Created with Sketch.</desc>
    <defs></defs>
    <g id="Page-1" stroke="none" stroke-width="1" fill="none" fill-rule="evenodd">
        <g id="loading">
            <path d="M29.3519322,0.473276608 C13.3355555,0.473276608 0.351932203,13.4568999 0.351932203,29.4732766 C0.351932203,45.4896533 13.3355555,58.4732766 29.3519322,58.4732766 C45.3683089,58.4732766 58.3519322,45.4896533 58.3519322,29.4732766 C58.3519322,13.4568999 45.3683089,0.473276608 29.3519322,0.473276608 Z M29.5402638,55.4886297 C15.1728124,55.4886297 3.52491071,43.8417515 3.52491071,29.4732766 C3.52491071,15.1048017 15.1728124,3.45894703 29.5402638,3.45894703 C43.9077152,3.45894703 55.555617,15.1058252 55.555617,29.4743001 C55.555617,43.8427751 43.9077152,55.4886297 29.5402638,55.4886297 Z" id="Shape" fill="#CCCCCC" fill-rule="nonzero"></path>
            <path d="M56.6323125,30.7839918 C56.995313,23.3416421 55.0012694,16.0763959 50.3432542,11.2205579" id="Shape" stroke="#108EE9" stroke-width="3" stroke-linecap="round"></path>
        </g>
    </g>
</svg>
